<?xml version="1.0" standalone="no"?>
<!DOCTYPE svg PUBLIC "-//W3C//DTD SVG 20010904//EN"
 "http://www.w3.org/TR/2001/REC-SVG-20010904/DTD/svg10.dtd">
<svg version="1.0" xmlns="http://www.w3.org/2000/svg"
 width="600.000000pt" height="600.000000pt" viewBox="0 0 600.000000 600.000000"
 preserveAspectRatio="xMidYMid meet">
<metadata>
Created by potrace 1.11, written by Peter Selinger 2001-2013
</metadata>
<g transform="translate(0.000000,600.000000) scale(0.100000,-0.100000)"
fill="#000000" stroke="none">
<path d="M0 3000 l0 -3000 475 0 c444 0 478 1 513 19 20 10 80 33 134 50 125
42 169 71 308 209 63 63 127 123 143 134 27 19 27 19 27 0 0 -11 -9 -22 -20
-25 -13 -3 -20 -14 -20 -29 0 -13 -5 -29 -12 -36 -9 -9 -9 -12 3 -12 12 0 12
-2 0 -9 -8 -5 -20 -7 -27 -4 -6 2 -15 -1 -20 -8 -4 -8 -3 -10 4 -5 7 4 12 3
12 -3 0 -5 -5 -13 -10 -16 -6 -4 -8 -11 -5 -16 4 -5 1 -9 -4 -9 -6 0 -11 5
-11 11 0 5 -5 7 -10 4 -8 -5 -8 -11 -1 -19 11 -13 -10 -69 -30 -81 -5 -4 -7
-11 -3 -16 8 -13 -24 -61 -36 -54 -5 3 -7 -5 -4 -17 3 -13 6 -33 5 -45 l-1
-23 203 0 203 0 -1 23 c-1 12 -7 42 -15 67 -7 25 -14 79 -15 120 -1 41 -5 87
-9 101 -5 17 -3 29 3 34 8 4 7 13 -4 27 -9 13 -12 31 -8 46 4 16 2 23 -4 19
-6 -4 -8 3 -6 17 3 13 -2 30 -11 39 -22 21 -20 26 6 19 21 -5 21 -5 2 14 -12
13 -22 16 -26 10 -5 -8 -8 -8 -8 -1 0 6 5 16 11 22 8 8 6 24 -5 57 -20 58 -20
66 -1 66 18 0 20 26 3 33 -8 3 -6 6 5 6 18 1 23 26 7 36 -6 4 -10 12 -8 18 3
18 -12 57 -22 57 -5 0 -7 6 -4 14 3 8 1 17 -5 21 -17 10 -13 25 7 25 12 0 14
2 4 8 -7 5 -10 16 -6 25 7 19 -12 24 -20 5 -4 -10 -1 20 3 40 1 2 8 -4 17 -13
9 -9 19 -13 23 -9 3 4 0 9 -6 11 -7 3 -13 18 -13 34 0 18 -5 29 -14 29 -8 0
-16 7 -20 15 -6 17 5 20 21 4 8 -8 13 -7 19 2 4 7 3 14 -3 16 -6 2 -19 10 -29
18 -18 14 -18 14 3 29 13 10 19 23 16 35 -3 13 2 23 17 31 26 14 26 15 35 -35
l7 -40 -23 20 c-19 16 -18 14 4 -13 29 -36 34 -58 15 -64 -9 -3 -9 -13 -1 -39
6 -19 11 -27 12 -18 1 9 10 19 21 22 15 4 23 -3 35 -26 15 -30 15 -33 -5 -49
-15 -12 -19 -23 -14 -42 7 -29 21 -25 34 8 l9 21 7 -23 c4 -13 12 -21 19 -18
15 5 48 -27 38 -37 -3 -4 -1 -7 5 -7 6 0 13 -14 17 -31 4 -16 25 -49 46 -71
22 -23 51 -58 66 -77 15 -20 41 -49 60 -64 18 -16 33 -34 33 -40 0 -6 23 -34
50 -62 28 -28 64 -76 79 -106 17 -30 37 -55 48 -57 41 -7 83 -34 89 -57 3 -14
11 -22 19 -19 7 3 20 -4 28 -16 10 -14 20 -19 28 -14 9 5 10 2 6 -9 -4 -11 -1
-17 8 -17 17 0 20 16 5 25 -16 10 -12 23 11 30 15 5 19 13 16 28 -6 22 -5 22
10 0 16 -24 53 -31 53 -11 0 6 12 1 28 -13 36 -32 93 -61 126 -62 14 -1 26 -5
26 -9 0 -4 28 -6 62 -5 41 1 63 -3 66 -11 2 -7 13 -12 25 -12 16 0 18 -3 9 -9
-10 -6 -5 -10 17 -14 22 -5 29 -11 25 -22 -4 -9 0 -15 10 -15 10 0 13 -6 9
-15 -3 -9 3 -22 13 -31 14 -11 15 -17 7 -20 -7 -3 -13 -10 -13 -15 0 -5 598
-9 1500 -9 l1500 0 0 3000 0 3000 -3000 0 -3000 0 0 -3000z m3051 2050 c11 0
22 -6 25 -14 3 -8 13 -12 26 -8 16 4 19 2 13 -9 -7 -12 -6 -12 7 -1 13 11 16
4 21 -54 7 -72 13 -86 27 -64 8 13 10 12 10 -2 0 -10 6 -18 13 -18 8 0 20 -18
27 -41 8 -23 20 -43 27 -46 7 -3 13 -15 13 -27 0 -12 8 -32 17 -45 9 -14 11
-21 5 -17 -7 4 -12 3 -12 -2 0 -6 7 -12 15 -15 8 -4 24 -23 35 -44 46 -83 56
-98 78 -116 12 -10 22 -24 22 -30 0 -7 32 -28 71 -47 68 -33 111 -71 89 -78
-5 -2 -10 -8 -10 -13 0 -4 6 -6 13 -3 14 5 114 -105 109 -120 -2 -6 3 -15 11
-21 18 -13 40 -55 33 -63 -3 -3 -6 -1 -6 5 0 5 -10 22 -23 36 -16 19 -26 24
-37 17 -21 -13 -30 -12 -30 3 -1 6 -12 25 -25 42 -20 25 -27 27 -37 16 -10
-11 -10 -14 0 -18 6 -3 12 -10 12 -16 1 -7 30 -33 65 -60 47 -34 65 -54 65
-70 0 -13 3 -27 8 -32 4 -6 3 -7 -2 -3 -17 13 -29 9 -17 -6 9 -11 8 -15 -5
-20 -9 -4 -14 -13 -10 -21 6 -17 -9 -21 -19 -5 -3 6 -11 10 -16 10 -6 0 -2
-14 8 -30 9 -17 22 -28 28 -25 5 3 18 8 28 11 15 6 22 23 18 47 -1 5 3 6 9 2
6 -4 8 -14 5 -24 -3 -9 1 -26 9 -36 13 -18 14 -17 9 10 -3 17 -4 28 -1 25 11
-11 36 -70 28 -65 -5 3 -16 -2 -25 -11 -15 -15 -14 -18 5 -36 25 -23 20 -34
-8 -19 -16 8 -21 7 -26 -4 -4 -10 1 -15 15 -15 12 0 19 -5 16 -12 -2 -7 -10
-12 -16 -10 -7 1 -22 -8 -34 -20 -12 -13 -31 -24 -42 -25 -11 -2 -37 -5 -59
-7 -21 -2 -42 -9 -46 -16 -4 -6 -11 -11 -16 -10 -5 0 -12 -13 -15 -31 -9 -44
-30 -54 -52 -26 l-17 22 9 -26 c7 -20 6 -32 -4 -45 -8 -11 -15 -15 -15 -10 0
6 -11 -6 -26 -25 -14 -19 -32 -33 -40 -31 -7 2 -14 -2 -14 -8 0 -6 -11 -16
-25 -22 -14 -6 -25 -17 -25 -24 0 -7 -6 -11 -14 -8 -10 4 -12 -1 -9 -19 6 -30
-10 -42 -37 -27 -17 9 -20 8 -20 -9 0 -11 5 -23 10 -26 14 -9 12 -26 -2 -24
-22 4 -78 -35 -76 -52 2 -9 -3 -23 -11 -32 -9 -12 -10 -17 -2 -17 7 0 9 -4 6
-10 -3 -5 -1 -10 6 -10 8 0 6 -6 -4 -18 -22 -24 -21 -30 6 -34 17 -2 22 -10
22 -32 1 -15 -4 -38 -11 -51 -13 -26 -1 -55 23 -55 11 0 13 -4 6 -12 -6 -7
-13 -26 -15 -41 -4 -23 -2 -27 11 -23 10 4 8 -1 -6 -12 l-21 -19 26 -28 c19
-19 23 -29 14 -32 -8 -3 -10 -9 -3 -17 5 -6 11 -27 13 -46 2 -27 7 -35 21 -33
13 1 17 -4 14 -16 -2 -11 4 -23 15 -30 11 -7 17 -19 14 -27 -3 -8 -1 -14 4
-14 6 0 10 -7 10 -15 0 -8 5 -15 10 -15 6 0 10 -14 10 -31 0 -22 -5 -32 -20
-36 -11 -3 -20 -14 -20 -24 0 -12 -5 -16 -15 -13 -10 4 -15 0 -15 -12 0 -9 -3
-14 -6 -11 -4 3 -16 1 -27 -5 -17 -9 -19 -8 -14 6 6 14 3 15 -13 6 -11 -6 -26
-8 -32 -4 -7 5 -9 2 -5 -8 4 -11 -1 -16 -20 -15 -14 0 -28 -5 -32 -10 -8 -12
-56 -10 -72 4 -8 6 -25 14 -39 18 -14 4 -36 16 -49 26 -32 26 -110 25 -152 0
-22 -14 -42 -18 -63 -14 -44 8 -50 17 -47 67 1 24 -3 47 -9 51 -5 3 -10 -1
-10 -9 0 -9 -4 -16 -9 -16 -13 0 1 -45 33 -105 27 -50 58 -85 75 -85 5 0 11
-7 15 -15 4 -11 15 -14 41 -10 19 2 35 0 35 -5 0 -6 7 -10 15 -10 8 0 15 -4
15 -10 0 -5 4 -10 10 -10 8 0 23 37 25 65 1 12 25 8 42 -7 7 -6 13 -21 13 -34
0 -16 10 -30 30 -43 16 -10 28 -20 25 -22 -2 -3 10 -11 29 -17 18 -7 39 -23
46 -37 7 -14 16 -25 20 -25 4 0 5 -13 2 -29 -3 -24 0 -29 23 -35 14 -4 29 -5
33 -2 4 2 18 -4 32 -14 22 -17 23 -19 7 -35 -25 -25 -21 -28 27 -22 35 5 48 2
65 -14 11 -11 21 -26 21 -34 0 -7 6 -15 13 -18 18 -6 -48 -65 -81 -71 -84 -15
-108 -16 -159 -6 -31 7 -93 13 -139 13 -46 1 -84 4 -84 7 0 11 -140 10 -206
-1 -38 -7 -87 -13 -109 -15 -118 -8 -172 -18 -197 -35 -14 -11 -30 -19 -36
-19 -20 0 -29 -43 -16 -79 7 -20 13 -46 14 -58 0 -14 6 -23 15 -23 8 0 15 -5
15 -12 0 -9 3 -9 12 0 20 20 35 14 100 -33 34 -25 71 -45 81 -45 10 0 21 -9
24 -20 6 -23 32 -26 53 -7 11 9 11 8 0 -7 -14 -18 -13 -18 9 -11 21 6 23 5 17
-11 -5 -13 2 -10 25 11 26 25 30 26 20 8 -14 -27 -9 -29 22 -8 25 16 70 9 112
-19 13 -9 36 -15 52 -15 58 1 168 -14 181 -23 15 -13 16 -32 0 -22 -7 4 -8 3
-4 -4 4 -7 16 -12 26 -12 10 0 21 -6 23 -12 3 -7 6 -3 6 10 1 12 6 22 11 22
10 0 14 -20 10 -55 -1 -11 2 -16 7 -12 4 5 8 12 8 15 1 4 4 19 8 34 6 24 11
26 49 24 31 -2 44 -7 46 -19 2 -9 8 -17 13 -17 12 0 11 -71 -1 -90 -5 -8 -10
-10 -10 -4 0 7 -7 15 -16 18 -8 3 -13 2 -9 -3 3 -5 -1 -12 -7 -14 -10 -4 -10
-7 0 -15 17 -11 5 -42 -14 -35 -8 3 -23 -2 -33 -11 -10 -9 -21 -13 -24 -10 -4
4 -13 1 -21 -5 -10 -8 -16 -9 -21 -1 -3 6 -11 8 -16 4 -5 -3 -7 -10 -4 -15 9
-14 -2 -11 -19 7 -9 8 -16 11 -16 5 0 -6 -6 -11 -14 -11 -7 0 -16 -9 -19 -20
-3 -13 -10 -18 -21 -14 -9 3 -16 1 -16 -5 0 -6 -9 -11 -19 -11 -23 0 -60 -49
-53 -69 3 -10 0 -12 -11 -8 -11 4 -13 0 -10 -14 4 -13 14 -19 35 -19 30 0 58
-19 58 -40 0 -7 -8 -9 -20 -5 -11 4 -20 2 -20 -4 0 -6 7 -11 15 -11 8 0 15 -4
15 -9 0 -9 53 -21 97 -22 19 -1 20 -4 10 -21 -10 -16 -9 -22 8 -34 11 -8 19
-21 17 -29 -3 -15 32 -30 48 -20 6 3 18 -1 27 -10 13 -14 14 -18 3 -25 -19
-12 -33 -2 -25 17 4 13 3 13 -9 4 -7 -6 -16 -24 -19 -40 -5 -26 -10 -29 -42
-28 -19 1 -35 5 -35 9 0 4 -7 8 -16 8 -9 0 -14 -6 -11 -13 2 -7 1 -34 -3 -60
-6 -39 -4 -47 9 -47 13 0 13 -2 2 -9 -10 -6 -11 -13 -3 -27 21 -38 -20 -69
-58 -44 -13 9 -13 11 0 20 8 5 11 10 5 10 -16 0 -29 -13 -48 -48 -19 -33 -15
-61 3 -32 6 8 10 11 10 5 0 -20 -16 -30 -54 -33 -34 -2 -37 0 -26 13 11 13 9
15 -11 11 -13 -2 -23 -8 -22 -14 1 -6 -4 -13 -13 -16 -8 -3 -12 -2 -9 3 3 5 0
13 -6 17 -6 3 -15 0 -20 -7 -7 -12 -9 -12 -9 0 0 11 -3 11 -15 1 -12 -10 -15
-10 -15 3 0 9 -10 15 -27 15 -15 0 -29 4 -30 9 -2 5 -20 7 -40 5 -25 -3 -34
-1 -29 7 10 15 -9 14 -26 -2 -17 -16 -40 -16 -45 1 -3 6 1 12 8 12 7 0 -2 12
-19 26 -33 28 -43 50 -18 41 10 -4 12 0 8 15 -4 17 -2 20 12 15 11 -5 16 -3
14 5 -2 6 -13 13 -25 14 -16 3 -20 -1 -16 -15 3 -12 -2 -23 -15 -30 -16 -9
-21 -7 -25 9 -3 11 -1 23 4 26 5 3 9 14 9 25 0 10 3 18 8 18 18 -3 32 2 32 12
0 6 -7 9 -15 5 -8 -3 -15 -1 -15 3 0 5 6 12 13 14 6 3 1 6 -12 6 -20 1 -22 4
-13 13 16 16 16 51 0 45 -7 -2 -12 -9 -11 -15 2 -6 -4 -9 -12 -6 -10 4 -15 0
-15 -11 0 -10 5 -13 12 -9 6 4 8 3 5 -3 -4 -6 -15 -13 -25 -15 -15 -4 -18 -1
-15 21 l5 26 -16 -29 c-9 -15 -16 -35 -16 -43 0 -10 -6 -13 -16 -9 -11 4 -15
2 -11 -7 3 -9 -2 -13 -16 -12 -26 2 -46 51 -27 68 10 9 11 7 6 -8 -4 -15 -1
-21 12 -22 10 -1 19 5 19 13 0 8 -4 14 -8 14 -5 0 -6 7 -2 16 5 14 8 12 19 -7
13 -24 13 -24 14 7 0 43 -23 62 -43 34 -8 -12 -20 -18 -30 -15 -8 4 -18 2 -22
-4 -8 -14 -25 -14 -25 -1 0 6 7 10 16 10 8 0 13 4 10 9 -3 5 -14 7 -24 5 -27
-7 -48 11 -34 29 7 8 10 27 6 46 -7 34 -18 40 -28 15 -5 -13 -9 -13 -30 3 -13
10 -21 24 -19 31 4 8 0 10 -11 6 -8 -3 -14 -11 -13 -17 1 -6 -10 -12 -25 -12
-27 -1 -27 -1 -7 18 10 10 17 22 14 28 -4 5 -2 9 4 9 5 0 11 -5 13 -12 2 -6 9
-8 16 -4 9 5 9 11 0 26 -7 10 -16 16 -20 14 -4 -3 -8 0 -8 5 0 6 11 11 25 11
18 0 23 4 19 15 -5 13 -9 13 -22 3 -13 -11 -15 -10 -10 2 4 11 -1 16 -14 17
-14 1 -18 -4 -16 -20 2 -16 -2 -22 -14 -21 -21 2 -22 -5 -3 -30 12 -16 12 -21
0 -32 -7 -8 -17 -14 -21 -14 -5 0 -3 5 4 12 18 18 14 27 -8 21 -14 -4 -19 -11
-15 -23 3 -9 -2 -23 -10 -30 -13 -11 -18 -10 -29 6 -8 10 -12 22 -9 27 2 4 -9
34 -25 66 -18 36 -26 63 -21 68 6 6 1 17 -11 28 -18 17 -23 17 -32 5 -8 -12
-9 -12 -4 3 3 11 0 20 -10 24 -9 3 -13 12 -9 21 3 8 -2 23 -11 33 -9 10 -13
23 -8 31 6 10 5 11 -8 1 -26 -22 -73 2 -99 52 -13 24 -27 42 -31 39 -4 -3 -12
5 -18 16 -6 11 -8 20 -4 20 3 0 1 6 -5 13 -6 8 -7 18 -3 22 4 5 2 5 -5 1 -7
-4 -14 2 -18 15 -4 12 -12 18 -21 15 -8 -3 -14 -1 -14 4 0 6 -7 10 -15 10 -8
0 -15 9 -15 19 0 11 -4 22 -9 25 -5 4 -8 17 -6 31 1 14 -2 25 -7 25 -5 0 -8 6
-6 13 1 6 -6 27 -16 45 -9 19 -15 40 -12 48 3 8 1 14 -4 14 -5 0 -14 27 -21
60 -6 33 -16 60 -20 60 -5 0 -9 10 -8 23 0 21 1 21 9 2 6 -14 8 -4 7 33 -1 33
-6 51 -13 48 -15 -6 -35 81 -20 89 8 3 7 7 -1 11 -7 3 -13 10 -13 15 0 6 5 7
11 3 8 -4 8 -1 1 13 -15 27 -13 113 1 107 8 -3 12 12 13 46 1 32 -3 50 -10 50
-7 0 -12 9 -12 19 0 11 3 18 7 16 3 -3 11 7 17 20 7 14 8 25 3 25 -4 0 -6 11
-4 24 3 13 -3 38 -12 56 -9 17 -14 34 -11 38 3 3 6 0 6 -6 0 -20 17 -14 23 8
5 19 -14 45 -26 34 -4 -5 -3 46 2 67 0 3 12 5 26 4 22 -3 24 -1 13 18 -7 14
-13 17 -16 9 -2 -6 -8 -12 -14 -12 -6 0 -8 6 -5 14 3 7 1 18 -5 24 -8 8 -5 9
11 5 12 -3 21 -1 21 6 0 6 -4 11 -8 11 -5 0 -8 13 -7 29 1 22 -2 28 -13 24
-11 -5 -12 -2 -5 13 12 24 5 104 -10 104 -5 0 -3 8 5 18 15 17 14 47 -2 37 -8
-5 -7 105 2 120 3 6 4 23 2 38 -1 15 4 43 12 62 8 19 10 35 5 35 -11 0 -3 70
10 84 4 5 5 0 2 -12 -2 -11 0 -29 7 -39 9 -14 10 -15 6 -1 -7 23 16 68 35 68
29 0 41 27 37 79 -2 35 0 47 8 40 7 -6 15 0 24 16 19 35 40 40 40 9 0 -21 3
-23 19 -14 11 5 30 10 42 10 22 0 22 0 3 -16 -16 -13 -16 -15 -1 -10 9 3 17 1
17 -4 0 -6 8 -10 18 -10 17 0 44 38 47 65 0 6 13 9 29 7 17 -2 25 1 21 7 -3 6
-20 11 -36 11 -17 0 -28 4 -24 9 7 12 83 5 99 -8 12 -10 63 -3 72 10 3 5 -4 9
-16 9 -12 0 -18 5 -15 10 3 6 17 10 29 10 21 0 60 30 40 30 -5 0 -2 5 6 10 21
13 0 33 -34 33 -34 0 -43 14 -11 16 14 1 31 2 38 3 6 0 30 -2 52 -6 29 -5 34
-4 19 3 -25 11 -43 34 -20 25 11 -4 13 0 9 18 -6 21 -5 22 10 9 11 -9 17 -10
17 -2 0 11 56 13 75 2 15 -9 55 -8 55 1 0 4 7 8 16 8 14 0 14 3 4 15 -11 13
-8 14 26 9 22 -3 48 -7 59 -8 11 -1 30 -8 41 -14 12 -6 24 -9 27 -6 3 3 20 -2
38 -12 23 -11 34 -13 37 -5 5 15 43 14 39 -1 -1 -6 7 -14 18 -16 22 -4 65 -40
65 -54 0 -5 -4 -7 -9 -4 -5 3 -11 0 -14 -8 -5 -12 -1 -12 29 0 19 8 39 12 45
8 5 -3 24 -7 42 -10 79 -9 103 -16 146 -40 33 -18 40 -20 24 -6 -12 11 -20 22
-17 25 3 3 0 15 -6 27 -8 15 -8 26 -2 32 7 7 12 0 17 -21 9 -41 21 -47 30 -13
6 26 7 26 21 8 15 -21 19 -10 5 13 -5 8 -16 11 -26 7 -11 -4 -15 -2 -12 6 2 7
0 24 -5 37 -7 21 -7 22 7 11 12 -10 15 -10 15 2 0 7 -15 22 -32 32 -18 10 -48
28 -67 39 -19 12 -31 15 -26 8 5 -9 3 -12 -6 -9 -8 3 -13 12 -11 19 2 8 0 11
-4 6 -4 -4 -15 0 -24 8 -10 9 -28 18 -40 20 -13 3 -28 10 -34 16 -8 9 -6 10 7
6 27 -10 20 1 -13 18 -37 19 -54 19 -20 0 14 -8 20 -14 14 -15 -6 0 -23 9 -38
21 -14 11 -30 18 -35 15 -4 -3 -16 3 -26 14 -20 22 -35 26 -35 9 0 -5 4 -8 9
-5 5 3 11 -1 15 -9 7 -20 -2 -19 -50 4 -22 11 -76 22 -124 26 -62 6 -80 10
-65 17 20 8 6 7 -100 -9 -21 -3 -48 -15 -60 -25 -11 -11 -33 -26 -50 -34 -58
-28 -105 -61 -98 -68 5 -4 4 -7 -2 -5 -28 7 -86 -36 -78 -57 3 -8 -7 -21 -26
-31 -17 -10 -31 -26 -31 -36 0 -11 -5 -17 -12 -14 -8 2 -12 17 -10 37 2 21 0
30 -7 25 -6 -3 -11 -15 -11 -25 0 -23 -20 -37 -30 -20 -5 8 -9 7 -14 -5 -5
-15 -8 -15 -21 -1 -9 8 -15 19 -14 23 1 4 -3 20 -9 36 -12 29 -32 37 -32 12 0
-8 -5 -15 -11 -15 -6 0 -9 7 -5 15 3 8 1 15 -3 15 -5 0 -13 -11 -18 -25 -8
-25 -8 -25 -25 -6 -17 19 -16 21 12 38 17 9 30 21 30 26 0 4 -5 5 -12 1 -8 -5
-9 -2 -5 10 4 10 7 21 7 25 0 4 13 14 29 24 23 13 27 22 23 43 -3 18 -1 25 6
20 6 -3 13 6 17 24 4 17 11 28 15 25 5 -3 12 11 16 32 4 21 15 49 25 62 11 13
19 29 19 35 0 6 -4 5 -9 -3 -6 -10 -13 -11 -27 -3 -18 10 -17 11 6 20 14 5 28
8 32 5 11 -6 5 41 -6 48 -5 4 -1 17 8 30 9 13 16 35 16 49 0 20 -2 22 -10 10
-13 -20 -13 -8 0 25 9 24 8 26 -12 19 -17 -5 -13 3 17 29 22 20 47 36 55 37 8
0 35 16 59 35 24 19 53 35 64 35 17 0 18 2 6 17 -13 15 -11 16 11 10 l25 -6
-25 19 c-14 11 -22 20 -17 20 4 0 9 -1 10 -2 2 -2 11 3 20 10 9 8 20 11 25 8
6 -3 15 1 22 9 11 13 10 14 -6 9 -19 -7 -19 -7 0 14 13 15 29 21 51 19 l33 -2
-20 -27 c-18 -26 -30 -32 -50 -29 -5 0 -7 -3 -5 -8 1 -5 -7 -17 -18 -26 -23
-19 -15 -17 37 10 20 10 46 35 57 54 11 20 40 57 65 83 46 47 61 72 29 47 -16
-13 -17 -12 -5 3 8 9 20 14 27 11 12 -4 12 -10 0 -40 -8 -20 -15 -44 -15 -56
0 -18 1 -18 18 4 10 13 25 38 32 56 10 21 23 33 42 37 17 3 28 12 28 22 0 13
3 14 14 5 11 -9 15 -8 21 6 5 10 9 22 9 27 1 5 7 11 15 14 9 3 11 -2 8 -14 -8
-27 -20 -86 -22 -104 0 -9 -5 -22 -9 -30 -7 -12 -6 -13 4 -3 7 7 14 23 16 35
1 13 9 39 18 58 l15 35 -3 -37 c-5 -55 11 -68 19 -17 4 24 10 49 13 54 4 6 7
15 8 20 0 6 2 16 2 23 1 6 9 12 17 12 8 0 15 5 15 10 0 19 19 10 36 -16 13
-19 14 -28 5 -33 -9 -6 -8 -11 4 -21 11 -10 15 -10 15 0 0 7 7 10 16 6 9 -4
13 -2 8 5 -13 21 -16 79 -4 79 6 0 8 -4 5 -10 -3 -5 -1 -10 5 -10 7 0 9 -8 5
-21 -6 -18 -5 -19 14 -7 18 11 23 11 30 0 6 -10 13 -11 34 -1 15 7 24 16 21
20 -3 5 2 9 11 9 9 0 14 4 11 8 -3 5 11 9 30 10 19 1 42 8 50 17 9 8 22 15 30
15 8 0 14 5 14 10 0 6 5 10 11 10 5 0 7 -6 4 -12 -4 -7 0 -6 7 3 10 12 19 14
37 7 13 -4 26 -6 29 -3 3 3 -1 6 -9 6 -8 1 3 5 23 8 l37 6 -35 23 c-20 13 -33
19 -29 13 7 -12 1 -13 -58 -14 -20 0 -40 3 -44 7 -3 3 -1 6 5 6 7 0 11 3 11 8
-4 23 6 29 48 31 50 1 66 14 57 45 -4 12 -2 16 5 12 6 -4 11 -14 11 -22 0 -8
4 -14 9 -14 4 0 7 12 5 28 -2 15 -1 21 2 15 3 -7 14 -13 25 -13z m122 -92 c3
-21 2 -38 -4 -38 -5 0 -9 19 -9 42 0 49 5 47 13 -4z m60 -50 c2 -13 8 -32 12
-43 14 -35 -4 -10 -20 28 -8 20 -11 37 -6 37 5 0 11 -10 14 -22z m-829 -92
c-3 -8 -12 -17 -20 -20 -12 -4 -12 -2 -4 14 12 23 32 27 24 6z m93 -28 c-3 -8
-6 -5 -6 6 -1 11 2 17 5 13 3 -3 4 -12 1 -19z m-117 -33 c-7 -8 -17 -15 -22
-15 -6 0 -5 7 2 15 7 8 17 15 22 15 6 0 5 -7 -2 -15z m-256 -41 c-20 -19 -41
-31 -47 -27 -6 4 -3 9 9 14 10 4 15 8 10 8 -5 1 1 12 13 25 13 14 30 22 38 19
10 -4 5 -14 -23 -39z m-219 -225 c-4 -5 -1 -9 4 -9 6 0 11 7 11 15 0 16 12 20
23 8 11 -10 -13 -33 -34 -33 -13 0 -19 7 -19 21 0 11 5 17 10 14 6 -4 8 -11 5
-16z m95 17 c0 -11 -19 -15 -25 -6 -3 5 1 10 9 10 9 0 16 -2 16 -4z m-30 -26
c0 -5 -10 -15 -22 -21 l-23 -12 20 21 c23 24 25 25 25 12z m-135 -210 c3 -5 1
-10 -4 -10 -6 0 -11 5 -11 10 0 6 2 10 4 10 3 0 8 -4 11 -10z m-138 -362 c-3
-8 -6 -5 -6 6 -1 11 2 17 5 13 3 -3 4 -12 1 -19z m728 -56 c-3 -3 -11 0 -18 7
-9 10 -8 11 6 5 10 -3 15 -9 12 -12z m-456 -25 c-2 -1 -13 -9 -24 -17 -19 -14
-19 -14 -6 3 7 9 18 17 24 17 6 0 8 -1 6 -3z m761 -19 c11 -12 20 -29 19 -37
0 -14 -1 -14 -6 -1 -3 8 -15 25 -26 38 -11 12 -18 22 -14 22 3 0 15 -10 27
-22z m-94 -29 c3 -6 -5 -3 -20 6 -14 10 -26 19 -26 22 0 7 39 -17 46 -28z
m-160 0 c19 -22 19 -22 -3 -10 -24 12 -39 31 -25 31 5 0 17 -10 28 -21z m384
-40 c15 -28 5 -23 -15 7 -9 15 -12 23 -6 20 6 -4 16 -16 21 -27z m-36 5 c3 -8
2 -12 -4 -9 -6 3 -10 10 -10 16 0 14 7 11 14 -7z m-1154 -15 c8 -14 8 -24 1
-33 -6 -7 -8 -16 -4 -19 3 -4 3 -7 -1 -7 -4 0 -12 14 -18 30 -8 25 -13 28 -24
19 -8 -6 -14 -8 -14 -4 0 9 31 34 42 35 4 0 12 -9 18 -21z m951 -5 l24 -27
-27 18 c-16 9 -28 21 -28 26 0 14 5 11 31 -17z m205 -24 c5 0 17 -14 26 -30
l17 -30 -23 17 c-13 10 -22 22 -19 26 3 5 -4 4 -15 -2 -28 -15 -37 -14 -23 3
8 10 9 16 1 21 -5 3 -10 11 -10 17 0 6 8 4 18 -5 10 -10 23 -17 28 -17z
m-1030 -6 c-4 -9 -9 -15 -11 -12 -3 3 -3 13 1 22 4 9 9 15 11 12 3 -3 3 -13
-1 -22z m27 -9 c-7 -21 -13 -19 -13 6 0 11 4 18 10 14 5 -3 7 -12 3 -20z m42
-24 c-14 -23 -30 -39 -36 -35 -6 4 -4 13 7 25 9 10 14 19 9 19 -4 0 3 9 16 19
34 27 35 19 4 -28z m-98 -48 c-5 -28 -3 -34 8 -29 8 3 15 1 15 -4 0 -6 -7 -10
-16 -10 -14 0 -14 -3 -3 -16 11 -13 9 -14 -17 -8 -16 4 -30 11 -32 16 -2 4
-10 8 -18 8 -9 0 -14 11 -14 30 0 17 5 30 10 30 6 0 10 5 10 12 0 6 8 19 18
28 16 16 18 16 31 -2 8 -13 11 -33 8 -55z m-101 -30 c-10 -10 -19 5 -10 18 6
11 8 11 12 0 2 -7 1 -15 -2 -18z m2284 -38 c-15 -18 -6 -19 23 -3 12 7 39 13
60 15 44 3 50 -15 16 -50 -12 -12 -19 -17 -15 -10 3 6 2 14 -3 17 -11 7 -22
-19 -15 -37 10 -28 -24 -40 -94 -34 -75 6 -105 15 -96 28 3 5 -3 9 -13 9 -25
0 29 32 85 50 24 7 45 17 48 22 3 4 8 8 11 8 3 0 0 -7 -7 -15z m-660 -79 c0
-3 -4 -8 -10 -11 -5 -3 -10 -1 -10 4 0 6 5 11 10 11 6 0 10 -2 10 -4z m595
-55 c14 -6 -1 -10 -53 -16 -80 -8 -103 -2 -51 14 42 11 78 12 104 2z m-26 -80
c12 -8 12 -12 2 -25 -26 -31 -49 -18 -35 18 7 18 13 19 33 7z m-119 -20 c0 -5
-7 -11 -15 -15 -15 -5 -20 5 -8 17 9 10 23 9 23 -2z m76 -52 c62 -11 124 -38
92 -39 -26 0 -22 -17 7 -36 14 -9 22 -20 19 -25 -3 -5 2 -9 10 -9 9 0 16 -7
16 -16 0 -12 -9 -14 -52 -10 -101 10 -144 26 -134 52 6 15 -23 40 -44 38 -8
-1 -21 -2 -28 -3 -7 0 -10 -5 -7 -11 4 -6 -6 -10 -22 -9 -18 0 -23 3 -13 7 8
4 15 18 15 32 0 37 44 47 141 29z m-64 -91 c-7 -7 -12 -8 -12 -2 0 6 3 14 7
17 3 4 9 5 12 2 2 -3 -1 -11 -7 -17z m108 -134 c14 -1 37 -4 51 -7 14 -3 57
-8 95 -11 67 -6 68 -5 39 9 -29 15 -27 16 49 10 44 -3 93 -12 110 -19 33 -14
94 -72 63 -61 -11 5 -19 1 -24 -11 -3 -11 -13 -23 -20 -27 -7 -5 -11 -13 -7
-18 3 -6 -5 -7 -23 -4 -25 6 -26 5 -10 -8 26 -22 20 -32 -8 -13 -14 9 -25 12
-25 8 0 -5 -11 -7 -25 -4 -18 3 -25 0 -25 -12 0 -9 8 -16 19 -16 26 0 34 -15
21 -39 -7 -14 -6 -23 3 -33 8 -7 12 -19 9 -27 -3 -10 2 -12 22 -7 30 7 36 -10
6 -19 -12 -4 -20 -15 -20 -30 0 -12 -7 -25 -15 -29 -8 -3 -15 -12 -15 -21 0
-8 -4 -15 -8 -15 -21 0 -56 -43 -59 -72 -2 -18 -8 -35 -14 -39 -8 -5 -8 -9 1
-14 8 -5 6 -13 -7 -28 -18 -20 -18 -20 7 -14 22 5 23 5 8 -7 -10 -7 -15 -16
-11 -19 3 -4 -4 -7 -16 -7 -18 0 -21 4 -16 20 5 16 2 20 -14 20 -23 0 -28 15
-8 24 6 3 2 3 -10 0 -18 -4 -23 -1 -23 15 0 12 7 21 15 21 8 0 15 4 15 9 0 11
-38 24 -62 21 -20 -1 -25 34 -7 46 8 4 7 10 -1 18 -11 11 -16 13 -50 15 -11 0
-20 6 -20 11 0 6 6 10 13 9 47 -6 49 1 13 43 -20 23 -36 48 -36 55 0 7 -5 13
-11 13 -8 0 -7 5 2 16 10 13 10 17 0 24 -9 5 -10 10 -2 14 7 5 8 13 2 24 -13
25 -2 72 15 65 8 -3 14 1 14 11 0 9 -5 16 -10 16 -7 0 -7 6 0 20 9 16 8 20 -6
20 -12 0 -15 6 -11 21 3 12 0 22 -9 26 -8 3 -14 9 -14 15 0 5 6 6 13 1 6 -4
23 -8 37 -9z m429 -10 c2 -2 -5 -4 -16 -4 -12 0 -23 7 -27 15 -5 13 -2 14 17
4 12 -6 24 -13 26 -15z m-3222 -211 c2 -122 10 -169 28 -151 3 3 1 56 -5 118
-13 124 -9 160 18 160 24 0 64 -69 52 -90 -4 -8 -13 -46 -18 -83 -9 -57 -19
-79 -54 -125 l-42 -57 -11 55 c-12 64 -13 250 -1 298 6 26 11 31 20 23 7 -8
12 -61 13 -148z m148 64 c-3 -12 -7 -34 -9 -50 -4 -24 -41 -87 -51 -87 -6 0
15 52 26 67 6 6 9 20 8 30 -5 28 10 75 21 68 6 -4 8 -16 5 -28z m2946 -80
c-10 -9 -11 -8 -5 6 3 10 9 15 12 12 3 -3 0 -11 -7 -18z m-2895 -67 c3 -36 12
-78 19 -95 7 -16 23 -55 35 -85 36 -92 61 -140 73 -137 7 1 11 -4 9 -12 -2 -7
4 -21 12 -30 14 -16 30 -113 30 -181 -1 -20 7 -43 18 -55 39 -42 -5 -135 -80
-169 -39 -18 -42 -18 -109 3 -37 12 -77 30 -88 39 -48 42 -83 99 -94 157 -17
82 -24 145 -17 145 4 0 19 -15 35 -32 41 -46 50 -28 13 27 -16 25 -33 65 -36
90 -4 24 -11 47 -17 50 -5 4 -5 14 1 26 7 13 7 19 0 19 -5 0 -10 18 -10 41 0
42 4 48 147 232 20 26 40 44 45 39 4 -4 11 -37 14 -72z m2927 63 c-7 -2 -13
-12 -13 -20 0 -9 -3 -14 -6 -10 -10 10 4 37 18 36 10 0 10 -2 1 -6z m-37 -340
c-10 -10 -19 5 -10 18 6 11 8 11 12 0 2 -7 1 -15 -2 -18z m-46 -53 c0 -5 -11
-12 -25 -16 -14 -3 -25 -11 -25 -17 0 -10 -29 22 -30 33 0 3 18 6 40 8 22 1
40 -2 40 -8z m67 -397 c10 -43 -2 -107 -37 -193 -31 -78 -48 -146 -42 -176 4
-23 5 -24 23 -8 10 9 17 20 14 24 -2 4 2 7 9 7 10 0 11 -9 6 -32 -4 -18 -11
-38 -15 -45 -5 -7 -9 -23 -10 -34 -2 -12 -11 -39 -20 -61 -10 -22 -19 -46 -21
-54 -4 -19 -75 -91 -90 -91 -6 0 -17 -7 -24 -15 -11 -14 -15 -13 -28 6 -11 17
-16 18 -23 8 -5 -8 -9 -9 -9 -3 0 5 7 19 15 30 8 10 15 35 15 54 0 19 6 46 13
60 9 17 11 35 5 55 -8 28 -3 106 8 148 4 11 0 17 -10 17 -13 0 -12 6 3 48 23
66 70 142 87 142 17 0 74 86 74 111 0 16 24 38 42 39 3 0 10 -17 15 -37z
m-1403 -22 c27 -30 24 -77 -8 -106 -16 -14 -40 -28 -55 -31 -24 -5 -30 -1 -40
24 l-13 30 -34 -20 c-35 -20 -54 -18 -54 8 0 11 -9 14 -32 12 -21 -2 -33 2
-36 12 -5 13 -3 13 11 1 14 -11 18 -11 24 5 8 23 42 59 64 67 9 3 28 -1 43 -8
23 -12 27 -12 36 6 14 26 71 26 94 0z m160 -22 c26 -29 28 -30 47 -13 17 15
25 16 77 4 93 -20 112 -34 112 -79 0 -26 -5 -41 -16 -45 -8 -3 -12 -10 -9 -16
7 -12 -39 -13 -110 -3 -37 5 -51 12 -64 34 -13 20 -21 25 -31 18 -23 -13 -94
-11 -115 5 -24 18 -24 80 1 107 27 30 75 25 108 -12z m419 -66 c9 -9 17 -29
17 -44 0 -23 -5 -30 -27 -34 -16 -4 -36 -10 -45 -16 -25 -13 -64 -11 -76 4 -5
6 -13 31 -17 53 -9 60 8 74 77 62 29 -5 61 -17 71 -25z m87 -17 c0 -32 -13
-75 -21 -70 -10 6 -12 68 -2 77 11 11 23 8 23 -7z m-237 -193 c-7 -2 -19 -2
-25 0 -7 3 -2 5 12 5 14 0 19 -2 13 -5z m704 -405 c-3 -8 -6 -5 -6 6 -1 11 2
17 5 13 3 -3 4 -12 1 -19z m-2207 -89 c0 -5 -7 -9 -15 -9 -15 0 -20 12 -9 23
8 8 24 -1 24 -14z m1534 0 c-3 -5 -10 -7 -15 -3 -5 3 -7 10 -3 15 3 5 10 7 15
3 5 -3 7 -10 3 -15z m-59 -38 c-3 -6 -11 -11 -17 -11 -6 0 -6 6 2 15 14 17 26
13 15 -4z m-1078 -34 c-3 -7 4 -19 14 -25 23 -15 25 -31 3 -28 -28 4 -50 66
-23 66 6 0 9 -6 6 -13z m1093 -27 c0 -5 -5 -10 -11 -10 -5 0 -7 5 -4 10 3 6 8
10 11 10 2 0 4 -4 4 -10z m-940 -10 c0 -5 -2 -10 -4 -10 -3 0 -8 5 -11 10 -3
6 -1 10 4 10 6 0 11 -4 11 -10z m-117 -38 c4 9 6 9 6 1 2 -20 -16 -24 -30 -5
-13 15 -12 16 3 4 13 -10 17 -10 21 0z m1054 -107 c-6 -11 -10 -23 -9 -27 1
-4 -5 -5 -13 -2 -18 7 -19 28 -3 53 17 27 41 4 25 -24z m-697 22 c0 -2 -10
-12 -21 -23 -22 -19 -22 -19 -10 4 10 18 31 31 31 19z m21 -26 c-6 -10 -21
-21 -33 -24 -21 -6 -21 -4 5 19 34 29 41 30 28 5z m704 -49 c-3 -3 -11 0 -18
7 -9 10 -8 11 6 5 10 -3 15 -9 12 -12z m-30 -2 c3 -5 -1 -10 -9 -10 -8 0 -18
-9 -21 -20 -3 -11 -11 -20 -17 -20 -6 0 -6 6 2 15 11 13 10 14 -3 9 -17 -6
-30 -31 -22 -43 2 -4 -2 -8 -10 -8 -24 0 -17 17 21 53 37 36 49 40 59 24z m18
-39 c-3 -12 -11 -17 -19 -14 -19 7 -18 21 4 26 9 3 18 5 19 6 0 0 -1 -8 -4
-18z m-174 -67 c6 4 11 2 11 -3 0 -13 -37 -15 -44 -2 -3 4 -3 11 1 15 4 3 10
1 14 -5 4 -6 12 -8 18 -5z m-1322 -44 c-5 -30 -12 -32 -15 -5 -1 14 3 25 8 25
5 0 9 -9 7 -20z m1388 10 c-3 -5 -12 -10 -18 -10 -7 0 -6 4 3 10 19 12 23 12
15 0z m-917 -225 c-3 -3 -9 2 -12 12 -6 14 -5 15 5 6 7 -7 10 -15 7 -18z m297
-275 c3 -5 1 -10 -4 -10 -6 0 -11 5 -11 10 0 6 2 10 4 10 3 0 8 -4 11 -10z"/>
<path d="M3068 4943 c7 -3 16 -2 19 1 4 3 -2 6 -13 5 -11 0 -14 -3 -6 -6z"/>
<path d="M3190 4811 c0 -5 5 -13 10 -16 6 -3 10 -2 10 4 0 5 -4 13 -10 16 -5
3 -10 2 -10 -4z"/>
<path d="M3246 4725 c4 -8 11 -15 16 -15 6 0 5 6 -2 15 -7 8 -14 15 -16 15 -2
0 -1 -7 2 -15z"/>
<path d="M2621 4694 c0 -11 3 -14 6 -6 3 7 2 16 -1 19 -3 4 -6 -2 -5 -13z"/>
<path d="M2482 4635 c0 -16 2 -22 5 -12 2 9 2 23 0 30 -3 6 -5 -1 -5 -18z"/>
<path d="M2423 4605 c-3 -9 -3 -18 -1 -21 3 -3 8 4 11 16 6 23 -1 27 -10 5z"/>
<path d="M2267 4593 c-4 -3 -7 -11 -7 -17 0 -6 5 -5 12 2 6 6 9 14 7 17 -3 3
-9 2 -12 -2z"/>
<path d="M2240 4539 c-7 -11 -10 -23 -7 -25 2 -2 9 7 15 21 14 30 7 33 -8 4z"/>
<path d="M3423 4454 c9 -3 17 -12 17 -20 0 -8 4 -14 9 -14 22 0 3 35 -20 37
-15 1 -17 0 -6 -3z"/>
<path d="M1870 4375 c-7 -9 -11 -18 -8 -20 3 -3 11 1 18 10 7 9 11 18 8 20 -3
3 -11 -1 -18 -10z"/>
<path d="M3528 4297 c7 -8 8 -18 4 -22 -4 -5 -1 -5 6 -1 17 10 15 23 -4 30
-13 5 -14 4 -6 -7z"/>
<path d="M3670 4142 c0 -12 19 -26 26 -19 2 2 -2 10 -11 17 -9 8 -15 8 -15 2z"/>
<path d="M1803 3965 c0 -8 4 -12 9 -9 5 3 15 -10 23 -28 10 -23 14 -27 14 -13
0 18 -30 65 -41 65 -3 0 -5 -7 -5 -15z"/>
<path d="M1765 3952 c-13 -9 -16 -112 -3 -112 5 0 6 5 3 10 -3 6 -2 10 3 10 6
0 9 22 9 50 -1 27 -2 50 -2 50 0 0 -4 -4 -10 -8z"/>
<path d="M1792 3870 c0 -19 2 -27 5 -17 2 9 2 25 0 35 -3 9 -5 1 -5 -18z"/>
<path d="M3308 3795 c10 -60 8 -68 -15 -70 -28 -2 -26 0 -39 -52 -7 -27 -7
-47 -1 -59 7 -12 6 -15 -3 -9 -13 8 -32 -13 -24 -26 6 -10 62 9 71 24 4 6 0 8
-10 4 -14 -5 -16 -2 -11 20 5 18 4 24 -5 19 -6 -4 -11 -3 -11 3 0 5 4 12 9 15
5 3 7 15 4 26 -3 11 -1 20 3 21 49 4 64 18 64 62 0 17 -5 27 -14 27 -8 0 -16
6 -19 13 -2 6 -2 -1 1 -18z"/>
<path d="M1830 3798 c0 -11 22 -10 39 1 10 7 7 9 -12 8 -15 -1 -27 -5 -27 -9z"/>
<path d="M2300 3786 c0 -2 7 -7 16 -10 8 -3 12 -2 9 4 -6 10 -25 14 -25 6z"/>
<path d="M3141 3722 c-13 -25 -14 -42 -2 -42 8 0 23 52 16 58 -2 2 -8 -5 -14
-16z"/>
<path d="M3197 3713 c-11 -10 -8 -63 3 -63 6 0 10 3 11 8 6 58 3 72 -14 55z"/>
<path d="M2553 3663 c9 -2 23 -2 30 0 6 3 -1 5 -18 5 -16 0 -22 -2 -12 -5z"/>
<path d="M2920 3661 c0 -6 4 -13 10 -16 6 -3 7 1 4 9 -7 18 -14 21 -14 7z"/>
<path d="M2660 3645 c10 -13 9 -15 -9 -15 -12 0 -47 -9 -79 -20 -31 -11 -109
-25 -172 -31 -194 -17 -280 -49 -357 -129 -20 -22 -49 -44 -65 -51 l-30 -12
24 -13 23 -13 -30 -1 c-29 -1 -29 -1 -11 -15 13 -10 15 -15 6 -15 -7 0 -10 -3
-7 -7 6 -6 73 -5 137 1 14 2 35 4 48 4 12 1 22 9 22 17 0 11 9 15 28 13 15 -1
37 4 49 10 25 14 98 14 173 -1 30 -5 66 -9 80 -9 31 3 14 -15 -20 -20 -41 -5
-23 -23 23 -23 32 0 41 -4 39 -15 -5 -20 -33 -51 -42 -45 -4 3 -13 -2 -20 -10
-7 -8 -24 -15 -37 -15 -31 0 -95 -29 -88 -40 3 -5 27 -7 53 -5 26 2 88 7 137
10 50 3 104 8 120 11 17 3 51 6 77 7 25 1 44 5 41 10 -2 4 2 7 9 7 7 0 19 9
25 20 11 16 9 21 -9 34 -17 12 -24 13 -29 4 -6 -9 -11 -5 -17 11 -7 20 -10 21
-15 8 -9 -23 -26 -22 -21 1 4 12 17 18 52 20 25 1 50 6 54 10 5 5 -3 23 -17
42 -29 39 -32 55 -9 46 11 -4 15 -2 11 8 -4 11 -1 13 11 10 16 -5 16 -5 0 9
-18 14 -27 64 -15 84 4 6 0 16 -8 23 -7 6 -11 18 -8 26 3 8 -3 17 -13 21 -11
4 -25 15 -32 25 -7 10 -19 18 -25 18 -7 0 -6 -4 3 -10 26 -17 -10 -12 -44 5
-25 14 -27 14 -16 0z m-216 -100 c23 -18 20 -19 -89 -35 -154 -22 -174 -26
-189 -39 -8 -7 -21 -11 -27 -9 -7 2 5 14 25 26 21 12 42 19 48 16 7 -4 8 -2 4
4 -9 15 106 51 164 51 25 0 54 -6 64 -14z m-39 -85 c-3 -5 -1 -10 5 -10 6 0 8
-4 5 -10 -10 -17 -25 -11 -25 10 0 11 5 20 11 20 5 0 7 -4 4 -10z"/>
<path d="M1766 3468 c3 -4 11 -5 19 -1 21 7 19 12 -4 10 -11 0 -18 -5 -15 -9z"/>
<path d="M1823 3363 c9 -2 25 -2 35 0 9 3 1 5 -18 5 -19 0 -27 -2 -17 -5z"/>
<path d="M2685 3198 c-4 -9 -5 -24 -3 -32 2 -12 6 -12 20 -2 15 11 16 15 3 32
-12 17 -14 18 -20 2z"/>
<path d="M2401 3117 c-16 -20 10 -26 74 -17 48 7 47 11 -5 15 -14 1 -32 5 -41
9 -9 4 -21 1 -28 -7z"/>
<path d="M3170 3100 c0 -5 5 -10 10 -10 6 0 10 5 10 10 0 6 -4 10 -10 10 -5 0
-10 -4 -10 -10z"/>
<path d="M3110 3049 c0 -5 5 -7 10 -4 6 3 10 8 10 11 0 2 -4 4 -10 4 -5 0 -10
-5 -10 -11z"/>
<path d="M3190 3051 c0 -5 -8 -12 -17 -14 -14 -4 -12 -5 5 -6 13 -1 22 5 22
14 0 8 -2 15 -5 15 -3 0 -5 -4 -5 -9z"/>
<path d="M3055 3020 c-3 -5 -1 -10 4 -10 6 0 11 5 11 10 0 6 -2 10 -4 10 -3 0
-8 -4 -11 -10z"/>
<path d="M3165 2999 c-4 -6 -14 -8 -24 -4 -13 5 -14 4 -3 -6 10 -11 15 -10 29
4 10 9 14 17 11 17 -4 0 -10 -5 -13 -11z"/>
<path d="M2887 2852 c-9 -11 -6 -18 13 -33 14 -10 28 -19 31 -19 12 0 37 26
44 47 6 20 3 22 -35 20 -23 -1 -46 -8 -53 -15z"/>
<path d="M1570 2852 c0 -7 -3 -11 -8 -8 -4 2 -6 -13 -4 -35 4 -37 21 -65 23
-37 0 7 2 24 4 38 1 14 -1 32 -6 40 -6 11 -8 11 -9 2z"/>
<path d="M2604 2785 c-16 -12 -16 -14 -3 -15 9 0 22 7 29 15 16 19 0 19 -26 0z"/>
<path d="M2555 2769 c-4 -6 -5 -13 -2 -16 7 -7 27 6 27 18 0 12 -17 12 -25 -2z"/>
<path d="M2587 2749 c-10 -6 -25 -8 -34 -5 -8 4 -21 2 -27 -2 -6 -5 -24 -12
-40 -16 -19 -5 -26 -10 -18 -15 15 -9 -2 -25 -60 -60 -21 -13 -38 -27 -38 -32
0 -5 -7 -9 -16 -9 -17 0 -46 -25 -38 -33 3 -3 -6 -13 -20 -22 -14 -10 -26 -23
-26 -30 0 -17 -33 -45 -53 -45 -20 0 -23 -16 -4 -24 6 -3 3 -4 -8 -3 -14 1
-20 -4 -20 -18 0 -11 -4 -19 -10 -17 -14 5 -24 -31 -12 -46 6 -7 6 -12 1 -11
-20 3 -34 -2 -34 -12 0 -6 8 -8 18 -5 15 5 15 5 -1 -8 -10 -8 -20 -20 -21 -28
-2 -7 -6 -20 -9 -28 -21 -54 -9 -159 27 -228 9 -17 16 -40 16 -50 0 -11 6 -25
14 -31 7 -6 16 -26 20 -43 3 -17 8 -29 11 -26 3 3 -1 32 -10 64 -8 32 -18 83
-22 112 -6 51 -4 55 23 79 l29 25 -27 -7 c-18 -5 -28 -3 -28 4 0 6 6 11 13 11
8 0 8 3 -2 9 -12 8 -12 13 3 36 21 32 56 68 56 58 0 -4 23 16 50 46 28 30 50
50 50 45 0 -5 16 16 37 46 20 30 70 89 110 131 93 95 106 115 100 141 -4 14 2
27 16 39 24 20 13 25 -16 8z"/>
<path d="M2610 2450 c0 -5 9 -10 21 -10 11 0 17 5 14 10 -3 6 -13 10 -21 10
-8 0 -14 -4 -14 -10z"/>
<path d="M2700 2452 c0 -7 -4 -11 -9 -8 -5 3 -11 -1 -15 -9 -6 -17 21 -48 35
-40 5 4 9 3 10 -2 0 -4 2 -18 3 -31 2 -15 -2 -21 -10 -18 -9 3 -11 0 -7 -11 4
-10 2 -14 -7 -11 -17 5 -22 38 -9 54 6 8 4 14 -7 18 -27 10 -54 7 -60 -9 -4
-8 -17 -15 -30 -15 -13 0 -25 -6 -26 -12 0 -7 -2 -17 -3 -23 -2 -5 -3 -14 -4
-19 -1 -11 -31 13 -31 26 0 5 5 6 10 3 6 -3 10 -2 10 3 0 6 -7 13 -16 16 -8 3
-12 2 -9 -4 3 -6 -2 -10 -12 -10 -17 -1 -17 -1 0 -11 13 -8 15 -14 8 -23 -12
-15 -3 -79 9 -71 5 3 11 -3 13 -12 3 -11 5 -6 6 12 l2 30 14 -25 c8 -14 14
-19 15 -12 0 6 7 12 15 12 8 0 15 5 15 11 0 5 -4 8 -9 5 -5 -3 -15 2 -22 11
-12 15 -12 16 5 10 16 -6 17 -5 6 8 -9 11 -9 15 -1 15 6 0 14 -6 17 -14 5 -13
44 -13 66 0 4 3 5 -3 1 -12 -4 -11 -3 -15 4 -11 6 4 13 2 15 -4 2 -7 9 -5 17
5 11 13 11 16 0 16 -8 0 -5 5 6 14 16 12 22 12 41 0 11 -8 28 -12 37 -9 17 7
31 45 16 45 -5 0 -9 -4 -9 -10 0 -5 -7 -10 -16 -10 -9 0 -12 -5 -8 -12 4 -7 3
-10 -1 -5 -20 18 -11 46 17 56 31 11 39 26 8 16 -11 -4 -20 -2 -20 4 0 6 11
11 25 11 30 0 32 10 5 33 -20 16 -21 16 -30 -7 -7 -18 -14 -23 -30 -19 -20 5
-20 6 -3 26 17 19 17 19 -4 13 -15 -5 -25 -2 -32 11 -6 11 -11 13 -11 5z m-27
-78 c-7 -3 -9 -13 -6 -21 5 -13 2 -15 -11 -10 -10 4 -20 7 -22 7 -12 0 -1 19
14 23 23 6 40 7 25 1z"/>
<path d="M2940 2440 c0 -6 -9 -21 -21 -33 -19 -20 -21 -21 -30 -5 -8 15 -13
15 -23 5 -8 -6 -12 -15 -9 -20 2 -4 -3 -10 -11 -13 -15 -6 -13 -13 12 -53 1
-3 8 4 16 14 11 16 17 17 29 7 10 -9 17 -10 22 -2 3 5 3 10 0 10 -3 0 0 6 7
14 7 8 17 11 22 9 5 -3 6 0 4 8 -3 8 -2 21 2 29 5 9 2 20 -6 28 -9 8 -14 9
-14 2z"/>
<path d="M1575 2387 c-4 -10 -5 -21 -1 -24 10 -10 18 4 13 24 -4 17 -4 17 -12
0z"/>
<path d="M2545 2390 c-3 -5 -1 -10 4 -10 6 0 11 5 11 10 0 6 -2 10 -4 10 -3 0
-8 -4 -11 -10z"/>
<path d="M2458 2353 c7 -3 16 -2 19 1 4 3 -2 6 -13 5 -11 0 -14 -3 -6 -6z"/>
<path d="M2880 2320 c0 -5 5 -10 11 -10 5 0 7 5 4 10 -3 6 -8 10 -11 10 -2 0
-4 -4 -4 -10z"/>
<path d="M2080 2309 c0 -5 5 -7 10 -4 6 3 10 8 10 11 0 2 -4 4 -10 4 -5 0 -10
-5 -10 -11z"/>
<path d="M2821 2313 c-2 -23 11 -43 28 -43 15 1 15 2 0 13 -9 7 -18 19 -22 27
-3 8 -6 10 -6 3z"/>
<path d="M2426 2291 c-3 -5 1 -11 9 -14 9 -4 12 -1 8 9 -6 16 -10 17 -17 5z"/>
<path d="M2875 2280 c3 -5 8 -10 11 -10 2 0 4 5 4 10 0 6 -5 10 -11 10 -5 0
-7 -4 -4 -10z"/>
<path d="M2468 2269 c-19 -11 -24 -29 -8 -29 5 0 14 9 20 20 12 23 12 23 -12
9z"/>
<path d="M2748 2273 c7 -3 16 -2 19 1 4 3 -2 6 -13 5 -11 0 -14 -3 -6 -6z"/>
<path d="M2486 2244 c-9 -24 -7 -27 9 -10 17 17 19 26 6 26 -5 0 -12 -7 -15
-16z"/>
<path d="M2630 2256 c0 -2 9 -6 20 -9 11 -3 18 -1 14 4 -5 9 -34 13 -34 5z"/>
<path d="M3213 2231 c1 -11 7 -17 14 -14 17 7 17 20 -1 26 -10 4 -14 0 -13
-12z"/>
<path d="M2256 2221 c-4 -5 -2 -12 3 -15 5 -4 12 -2 15 3 4 5 2 12 -3 15 -5 4
-12 2 -15 -3z"/>
<path d="M2460 2210 c6 -11 13 -20 16 -20 2 0 0 9 -6 20 -6 11 -13 20 -16 20
-2 0 0 -9 6 -20z"/>
<path d="M3111 2194 c0 -11 3 -14 6 -6 3 7 2 16 -1 19 -3 4 -6 -2 -5 -13z"/>
<path d="M2358 2149 c8 -21 24 -28 29 -12 2 4 -6 14 -17 20 -17 11 -18 11 -12
-8z"/>
<path d="M2213 2140 c1 -22 5 -24 27 -10 13 8 12 10 -3 10 -10 0 -15 5 -12 10
3 6 2 10 -4 10 -5 0 -9 -9 -8 -20z"/>
<path d="M2350 2109 c0 -5 -6 -9 -14 -9 -8 0 -13 -8 -12 -17 4 -23 46 -31 46
-9 0 9 5 16 10 16 18 0 10 18 -10 23 -11 3 -20 1 -20 -4z"/>
<path d="M2490 2105 c0 -9 5 -15 11 -13 6 2 11 8 11 13 0 5 -5 11 -11 13 -6 2
-11 -4 -11 -13z"/>
<path d="M3140 1570 c0 -5 5 -10 10 -10 7 0 7 -7 0 -21 -7 -11 -9 -23 -6 -26
3 -3 8 2 12 11 3 9 10 13 15 10 13 -8 10 8 -5 29 -15 19 -26 22 -26 7z"/>
<path d="M3196 1532 c-2 -4 -1 -14 3 -21 6 -9 10 -7 14 8 5 20 -7 29 -17 13z"/>
<path d="M3227 1513 c-2 -10 -8 -27 -12 -37 -7 -16 -5 -17 10 -9 10 6 19 22
21 37 3 29 -11 36 -19 9z"/>
<path d="M2260 1450 c11 -7 11 -10 2 -10 -7 0 -10 -5 -6 -11 4 -8 9 -7 15 2 9
15 3 29 -14 29 -7 0 -6 -4 3 -10z"/>
<path d="M2300 1445 c-7 -9 -8 -15 -2 -15 5 0 12 7 16 15 3 8 4 15 2 15 -2 0
-9 -7 -16 -15z"/>
<path d="M1920 1419 c0 -5 5 -7 10 -4 6 3 10 8 10 11 0 2 -4 4 -10 4 -5 0 -10
-5 -10 -11z"/>
<path d="M3035 1411 c-3 -5 -1 -12 5 -16 5 -3 10 1 10 9 0 18 -6 21 -15 7z"/>
<path d="M2253 1378 c8 -24 12 -28 15 -15 2 9 7 15 11 13 4 -3 13 0 21 6 13 8
12 9 -2 5 -9 -3 -22 1 -28 9 -21 24 -29 15 -17 -18z"/>
<path d="M2005 1371 c6 -11 4 -13 -8 -8 -9 3 -19 2 -22 -2 -8 -13 27 -23 39
-11 7 7 6 14 -3 23 -11 10 -12 9 -6 -2z"/>
<path d="M2299 1368 c-7 -21 -3 -52 8 -66 14 -16 14 -16 9 2 -5 13 -2 17 8 13
10 -4 13 -1 9 8 -3 8 -9 13 -13 10 -5 -3 -6 4 -3 15 3 11 0 20 -6 20 -6 0 -11
-1 -12 -2z"/>
<path d="M2087 1353 c-4 -3 -7 -11 -7 -17 0 -6 5 -5 12 2 6 6 9 14 7 17 -3 3
-9 2 -12 -2z"/>
<path d="M2405 1320 c-3 -5 -1 -10 4 -10 6 0 11 5 11 10 0 6 -2 10 -4 10 -3 0
-8 -4 -11 -10z"/>
<path d="M2160 1311 c0 -6 4 -13 10 -16 6 -3 7 1 4 9 -7 18 -14 21 -14 7z"/>
<path d="M2045 1301 c-3 -6 -11 -9 -16 -6 -5 4 -9 -1 -9 -9 0 -9 4 -16 9 -16
12 0 35 29 28 36 -3 3 -8 0 -12 -5z"/>
<path d="M2250 1279 c-16 -4 -19 -7 -7 -8 9 -1 17 -9 17 -18 0 -12 3 -14 8 -7
4 7 15 13 25 15 17 4 17 4 0 15 -10 6 -29 7 -43 3z"/>
<path d="M2359 1281 c8 -5 10 -14 5 -22 -6 -12 -5 -12 9 0 23 19 21 31 -5 31
-17 0 -19 -3 -9 -9z"/>
<path d="M2401 1261 c-7 -5 -12 -14 -10 -20 2 -6 10 -2 17 9 14 22 13 23 -7
11z"/>
<path d="M2437 1243 c-4 -3 -7 -11 -7 -17 0 -6 5 -5 12 2 6 6 9 14 7 17 -3 3
-9 2 -12 -2z"/>
<path d="M2341 1231 c-8 -6 -9 -11 -3 -15 6 -3 14 -1 17 5 9 14 2 20 -14 10z"/>
<path d="M2440 1202 c0 -6 -10 -12 -22 -14 -14 -2 -22 -11 -23 -25 -1 -12 2
-20 7 -17 4 3 8 1 8 -4 0 -10 -77 -62 -92 -62 -10 0 -38 -25 -38 -34 0 -12 28
-5 51 13 14 10 37 17 56 16 18 -1 30 2 27 7 -3 4 0 8 7 8 6 0 9 -8 6 -20 -5
-21 7 -27 19 -9 3 6 16 8 29 5 14 -4 28 1 39 13 10 11 25 17 37 14 15 -4 18
-2 13 11 -9 23 -41 20 -49 -4 -7 -21 -14 -24 -39 -14 -20 8 -21 24 -1 24 13 0
14 4 5 20 -6 11 -16 20 -22 20 -7 0 -6 -5 2 -15 10 -12 10 -15 -3 -15 -17 0
-40 33 -31 43 3 3 12 3 20 0 9 -3 12 2 9 17 -5 25 -15 40 -15 22z m-42 -104
c-2 -6 -10 -14 -16 -16 -7 -2 -10 2 -6 12 7 18 28 22 22 4z"/>
<path d="M2322 1182 c-18 -10 -30 -21 -26 -25 11 -10 36 -8 29 2 -3 5 -1 12 5
16 5 3 10 -3 10 -13 0 -11 -9 -22 -20 -25 -11 -3 -20 -1 -20 5 0 5 -5 6 -10 3
-18 -11 1 -27 26 -22 13 2 24 0 24 -6 0 -6 3 -7 8 -3 7 8 8 13 11 42 0 8 6 12
12 8 8 -4 8 0 0 15 -7 11 -13 21 -14 21 -1 -1 -17 -9 -35 -18z"/>
<path d="M2263 1183 c4 -3 1 -13 -6 -21 -10 -13 -9 -14 3 -10 19 6 26 38 9 38
-7 0 -9 -3 -6 -7z"/>
<path d="M2220 1144 c0 -8 5 -12 10 -9 6 4 8 11 5 16 -9 14 -15 11 -15 -7z"/>
<path d="M3070 1140 c0 -5 5 -10 10 -10 6 0 10 5 10 10 0 6 -4 10 -10 10 -5 0
-10 -4 -10 -10z"/>
<path d="M2557 1056 c-4 -10 0 -12 14 -9 22 6 26 23 5 23 -8 0 -16 -6 -19 -14z"/>
<path d="M2593 1046 c-27 -13 -31 -28 -5 -19 14 5 15 3 5 -8 -18 -19 -16 -34
2 -19 9 7 14 19 11 25 -2 7 1 18 7 24 13 13 10 13 -20 -3z"/>
<path d="M3040 1050 c0 -5 5 -10 10 -10 6 0 10 5 10 10 0 6 -4 10 -10 10 -5 0
-10 -4 -10 -10z"/>
<path d="M2340 1040 c0 -5 5 -10 11 -10 5 0 7 5 4 10 -3 6 -8 10 -11 10 -2 0
-4 -4 -4 -10z"/>
<path d="M2455 1039 c-4 -6 -4 -13 0 -17 4 -4 10 -1 13 7 4 11 6 11 13 0 4 -7
11 -10 16 -6 4 5 1 12 -7 17 -20 13 -27 12 -35 -1z"/>
<path d="M2997 876 c20 -27 65 -42 56 -19 -3 7 -14 13 -24 13 -10 0 -19 4 -19
9 0 5 -7 12 -15 15 -13 5 -12 1 2 -18z"/>
<path d="M2598 813 c7 -3 16 -2 19 1 4 3 -2 6 -13 5 -11 0 -14 -3 -6 -6z"/>
<path d="M2950 799 c0 -5 5 -7 10 -4 6 3 10 8 10 11 0 2 -4 4 -10 4 -5 0 -10
-5 -10 -11z"/>
<path d="M2930 780 c0 -5 -6 -8 -12 -6 -7 1 -10 1 -5 -1 4 -3 7 -11 7 -19 0
-8 4 -14 9 -14 5 0 9 11 9 25 0 14 -2 25 -4 25 -2 0 -4 -4 -4 -10z"/>
<path d="M2798 763 c7 -3 16 -2 19 1 4 3 -2 6 -13 5 -11 0 -14 -3 -6 -6z"/>
<path d="M1745 3599 c-4 -6 -5 -12 -2 -15 2 -3 7 2 10 11 7 17 1 20 -8 4z"/>
<path d="M4095 2650 c3 -5 8 -10 11 -10 2 0 4 5 4 10 0 6 -5 10 -11 10 -5 0
-7 -4 -4 -10z"/>
<path d="M4016 2525 c-3 -8 -1 -15 4 -15 6 0 10 7 10 15 0 8 -2 15 -4 15 -2 0
-6 -7 -10 -15z"/>
<path d="M1122 2418 c-15 -15 -16 -42 -1 -32 6 3 24 -3 40 -15 20 -15 34 -19
45 -13 13 7 11 13 -14 40 -32 34 -51 39 -70 20z"/>
<path d="M1275 2330 c3 -5 13 -10 21 -10 8 0 12 5 9 10 -3 6 -13 10 -21 10 -8
0 -12 -4 -9 -10z"/>
<path d="M4010 1380 c0 -5 5 -10 10 -10 6 0 10 5 10 10 0 6 -4 10 -10 10 -5 0
-10 -4 -10 -10z"/>
<path d="M2590 239 c0 -5 5 -7 10 -4 6 3 10 8 10 11 0 2 -4 4 -10 4 -5 0 -10
-5 -10 -11z"/>
<path d="M2590 211 c0 -5 7 -12 16 -15 24 -9 28 -7 14 9 -14 17 -30 20 -30 6z"/>
<path d="M2638 113 c7 -3 16 -2 19 1 4 3 -2 6 -13 5 -11 0 -14 -3 -6 -6z"/>
</g>
</svg>
